# Created with Anim8or 1.00
# Object "Low Grass":

mtllib head.mtl

# Shape "Head":
g SheepHead
# No. points 86:
v 0 -0.75710 0
v 0.29214 -0.70528 0
v 0.53978 -0.53978 0
v 0.70528 -0.29214 0
v 0.76338 0 0
v 0.70528 0.29214 0
v 0.53978 0.53978 0
v 0.29214 0.70528 0
v 0 0.75174 0
v 0.25300 -0.70528 -0.14606
v 0.46748 -0.53978 -0.26990
v 0.61078 -0.29214 -0.35262
v 0.66110 0 -0.38168
v 0.61078 0.29214 -0.35262
v 0.46748 0.53978 -0.26990
v 0.25300 0.70528 -0.14606
v 0.14606 -0.70528 -0.25300
v 0.26990 -0.53978 -0.46748
v 0.35262 -0.29214 -0.61078
v 0.38168 0 -0.66110
v 0.35262 0.29214 -0.61078
v 0.26990 0.53978 -0.46748
v 0.14606 0.70528 -0.25300
v 0 -0.70528 -0.29214
v 0 -0.53978 -0.53978
v 0 -0.29214 -0.70528
v 0 0 -0.76338
v 0 0.29214 -0.70528
v 0 0.53978 -0.53978
v 0 0.70528 -0.29214
v -0.14606 -0.70528 -0.25300
v -0.26990 -0.53978 -0.46748
v -0.35262 -0.29214 -0.61078
v -0.38168 0 -0.66110
v -0.35262 0.29214 -0.61078
v -0.26990 0.53978 -0.46748
v -0.14606 0.70528 -0.25300
v -0.25300 -0.70528 -0.14606
v -0.46748 -0.53978 -0.26990
v -0.61078 -0.29214 -0.35262
v -0.66110 0 -0.38168
v -0.61078 0.29214 -0.35262
v -0.46748 0.53978 -0.26990
v -0.25300 0.70528 -0.14606
v -0.29214 -0.70528 0
v -0.53978 -0.53978 0
v -0.70528 -0.29214 0
v -0.76338 0 0
v -0.70528 0.29214 0
v -0.53978 0.53978 0
v -0.29214 0.70528 0
v -0.25300 -0.70528 0.14606
v -0.46748 -0.53978 0.26990
v -0.61078 -0.29214 0.35262
v -0.66110 0 0.38168
v -0.61078 0.29214 0.35262
v -0.46748 0.53978 0.26990
v -0.25300 0.70528 0.14606
v -0.14606 -0.70528 0.25300
v -0.26990 -0.53978 0.46748
v -0.35262 -0.29214 0.61078
v -0.38168 0 0.66110
v -0.35262 0.29214 0.61078
v -0.26990 0.53978 0.46748
v -0.14606 0.70528 0.25300
v 0 -0.70528 0.29214
v 0 -0.53978 0.53978
v 0 -0.29214 0.70528
v 0 0 0.76338
v 0 0.29214 0.70528
v 0 0.53978 0.53978
v 0 0.70528 0.29214
v 0.14606 -0.70528 0.25300
v 0.26990 -0.53978 0.46748
v 0.35262 -0.29214 0.61078
v 0.38168 0 0.66110
v 0.35262 0.29214 0.61078
v 0.26990 0.53978 0.46748
v 0.14606 0.70528 0.25300
v 0.25300 -0.70528 0.14606
v 0.46748 -0.53978 0.26990
v 0.61078 -0.29214 0.35262
v 0.66110 0 0.38168
v 0.61078 0.29214 0.35262
v 0.46748 0.53978 0.26990
v 0.25300 0.70528 0.14606

# No. normals 182:
vn 0.17446 -0.98355 -0.04675
vn 0.12772 -0.98355 -0.12772
vn 0.04675 -0.98355 -0.17446
vn -0.04675 -0.98355 -0.17446
vn -0.12772 -0.98355 -0.12772
vn -0.17446 -0.98355 -0.04675
vn -0.17446 -0.98355 0.04675
vn -0.12772 -0.98355 0.12772
vn -0.04675 -0.98355 0.17446
vn 0.04675 -0.98355 0.17446
vn 0.12772 -0.98355 0.12772
vn 0.17446 -0.98355 0.04675
vn 0.54959 -0.82236 -0.14722
vn 0.40230 -0.82238 -0.40230
vn 0.14726 -0.82238 -0.54955
vn -0.14722 -0.82236 -0.54959
vn -0.40230 -0.82238 -0.40230
vn -0.54955 -0.82238 -0.14726
vn -0.54959 -0.82236 0.14722
vn -0.40230 -0.82238 0.40230
vn -0.14726 -0.82238 0.54955
vn 0.14722 -0.82236 0.54959
vn 0.40230 -0.82238 0.40230
vn 0.54955 -0.82238 0.14726
vn 0.81154 -0.54236 -0.21739
vn 0.59412 -0.54225 -0.59412
vn 0.21749 -0.54227 -0.81156
vn -0.21739 -0.54236 -0.81154
vn -0.59412 -0.54225 -0.59412
vn -0.81156 -0.54227 -0.21749
vn -0.81154 -0.54236 0.21739
vn -0.59412 -0.54225 0.59412
vn -0.21749 -0.54227 0.81156
vn 0.21739 -0.54236 0.81154
vn 0.59412 -0.54225 0.59412
vn 0.81156 -0.54227 0.21749
vn 0.94858 -0.18865 -0.25419
vn 0.69441 -0.18868 -0.69441
vn 0.25421 -0.18867 -0.94857
vn -0.25419 -0.18865 -0.94858
vn -0.69441 -0.18868 -0.69441
vn -0.94857 -0.18867 -0.25421
vn -0.94858 -0.18865 0.25419
vn -0.69441 -0.18868 0.69441
vn -0.25421 -0.18867 0.94857
vn 0.25419 -0.18865 0.94858
vn 0.69441 -0.18868 0.69441
vn 0.94857 -0.18867 0.25421
vn 0.94858 0.18865 -0.25419
vn 0.69441 0.18868 -0.69441
vn 0.25421 0.18867 -0.94857
vn -0.25419 0.18865 -0.94858
vn -0.69441 0.18868 -0.69441
vn -0.94857 0.18867 -0.25421
vn -0.94858 0.18865 0.25419
vn -0.69441 0.18868 0.69441
vn -0.25421 0.18867 0.94857
vn 0.25419 0.18865 0.94858
vn 0.69441 0.18868 0.69441
vn 0.94857 0.18867 0.25421
vn 0.81154 0.54236 -0.21739
vn 0.59412 0.54225 -0.59412
vn 0.21749 0.54227 -0.81156
vn -0.21739 0.54236 -0.81154
vn -0.59412 0.54225 -0.59412
vn -0.81156 0.54227 -0.21749
vn -0.81154 0.54236 0.21739
vn -0.59412 0.54225 0.59412
vn -0.21749 0.54227 0.81156
vn 0.21739 0.54236 0.81154
vn 0.59412 0.54225 0.59412
vn 0.81156 0.54227 0.21749
vn 0.54959 0.82236 -0.14722
vn 0.40230 0.82238 -0.40230
vn 0.14726 0.82238 -0.54955
vn -0.14722 0.82236 -0.54959
vn -0.40230 0.82238 -0.40230
vn -0.54955 0.82238 -0.14726
vn -0.54959 0.82236 0.14722
vn -0.40230 0.82238 0.40230
vn -0.14726 0.82238 0.54955
vn 0.14722 0.82236 0.54959
vn 0.40230 0.82238 0.40230
vn 0.54955 0.82238 0.14726
vn 0.15692 0.98672 -0.04205
vn 0.11488 0.98672 -0.11488
vn 0.04205 0.98672 -0.15692
vn -0.04205 0.98672 -0.15692
vn -0.11488 0.98672 -0.11488
vn -0.15692 0.98672 -0.04205
vn -0.15692 0.98672 0.04205
vn -0.11488 0.98672 0.11488
vn -0.04205 0.98672 0.15692
vn 0.04205 0.98672 0.15692
vn 0.11488 0.98672 0.11488
vn 0.15692 0.98672 0.04205
vn 0 -1 0
vn 0.37213 -0.92818 0.00001
vn 0.70618 -0.70803 0.00004
vn 0.92352 -0.38354 0.00003
vn 1 0 0.00001
vn 0.92352 0.38354 0.00003
vn 0.70618 0.70803 0.00004
vn 0.36377 0.93149 0.00001
vn 0 1 0
vn 0.32227 -0.92818 -0.18605
vn 0.61158 -0.70803 -0.35307
vn 0.79980 -0.38354 -0.46176
vn 0.86602 0 -0.50001
vn 0.79980 0.38354 -0.46176
vn 0.61158 0.70803 -0.35307
vn 0.31503 0.93149 -0.18187
vn 0.18606 -0.92819 -0.32226
vn 0.35311 -0.70802 -0.61158
vn 0.46178 -0.38351 -0.79979
vn 0.50002 0 -0.86602
vn 0.46178 0.38351 -0.79979
vn 0.35311 0.70802 -0.61158
vn 0.18188 0.93149 -0.31502
vn 0.00001 -0.92818 -0.37213
vn 0.00004 -0.70803 -0.70618
vn 0.00003 -0.38354 -0.92352
vn 0.00001 0 -1
vn 0.00003 0.38354 -0.92352
vn 0.00004 0.70803 -0.70618
vn 0.00001 0.93149 -0.36377
vn -0.18605 -0.92818 -0.32227
vn -0.35307 -0.70803 -0.61158
vn -0.46176 -0.38354 -0.79980
vn -0.50001 0 -0.86602
vn -0.46176 0.38354 -0.79980
vn -0.35307 0.70803 -0.61158
vn -0.18187 0.93149 -0.31503
vn -0.32226 -0.92819 -0.18606
vn -0.61158 -0.70802 -0.35311
vn -0.79979 -0.38351 -0.46178
vn -0.86602 0 -0.50002
vn -0.79979 0.38351 -0.46178
vn -0.61158 0.70802 -0.35311
vn -0.31502 0.93149 -0.18188
vn -0.37213 -0.92818 -0.00001
vn -0.70618 -0.70803 -0.00004
vn -0.92352 -0.38354 -0.00003
vn -1 0 -0.00001
vn -0.92352 0.38354 -0.00003
vn -0.70618 0.70803 -0.00004
vn -0.36377 0.93149 -0.00001
vn -0.32227 -0.92818 0.18605
vn -0.61158 -0.70803 0.35307
vn -0.79980 -0.38354 0.46176
vn -0.86602 0 0.50001
vn -0.79980 0.38354 0.46176
vn -0.61158 0.70803 0.35307
vn -0.31503 0.93149 0.18187
vn -0.18606 -0.92819 0.32226
vn -0.35311 -0.70802 0.61158
vn -0.46178 -0.38351 0.79979
vn -0.50002 0 0.86602
vn -0.46178 0.38351 0.79979
vn -0.35311 0.70802 0.61158
vn -0.18188 0.93149 0.31502
vn -0.00001 -0.92818 0.37213
vn -0.00004 -0.70803 0.70618
vn -0.00003 -0.38354 0.92352
vn -0.00001 0 1
vn -0.00003 0.38354 0.92352
vn -0.00004 0.70803 0.70618
vn -0.00001 0.93149 0.36377
vn 0.18605 -0.92818 0.32227
vn 0.35307 -0.70803 0.61158
vn 0.46176 -0.38354 0.79980
vn 0.50001 0 0.86602
vn 0.46176 0.38354 0.79980
vn 0.35307 0.70803 0.61158
vn 0.18187 0.93149 0.31503
vn 0.32226 -0.92819 0.18606
vn 0.61158 -0.70802 0.35311
vn 0.79979 -0.38351 0.46178
vn 0.86602 0 0.50002
vn 0.79979 0.38351 0.46178
vn 0.61158 0.70802 0.35311
vn 0.31502 0.93149 0.18188

# No. texture coordinates 100:
vt 0.50000 0
vt 0.75000 0.12543
vt 0.83333 0.12543
vt 0.91667 0.12543
vt 1 0.12543
vt 0.08333 0.12543
vt 0.16667 0.12543
vt 0.25000 0.12543
vt 0.33333 0.12543
vt 0.41667 0.12543
vt 0.50000 0.12543
vt 0.58333 0.12543
vt 0.66667 0.12543
vt 0.75000 0.25079
vt 0.83333 0.25080
vt 0.91667 0.25080
vt 1 0.25079
vt 0.08333 0.25080
vt 0.16667 0.25080
vt 0.25000 0.25079
vt 0.33333 0.25080
vt 0.41667 0.25080
vt 0.50000 0.25079
vt 0.58333 0.25080
vt 0.66667 0.25080
vt 0.75000 0.37603
vt 0.83333 0.37603
vt 0.91667 0.37603
vt 1 0.37603
vt 0.08333 0.37603
vt 0.16667 0.37603
vt 0.25000 0.37603
vt 0.33333 0.37603
vt 0.41667 0.37603
vt 0.50000 0.37603
vt 0.58333 0.37603
vt 0.66667 0.37603
vt 0.75000 0.50112
vt 0.83333 0.50112
vt 0.91667 0.50112
vt 1 0.50112
vt 0.08333 0.50112
vt 0.16667 0.50112
vt 0.25000 0.50112
vt 0.33333 0.50112
vt 0.41667 0.50112
vt 0.50000 0.50112
vt 0.58333 0.50112
vt 0.66667 0.50112
vt 0.75000 0.62603
vt 0.83333 0.62604
vt 0.91667 0.62604
vt 1 0.62603
vt 0.08333 0.62604
vt 0.16667 0.62604
vt 0.25000 0.62603
vt 0.33333 0.62604
vt 0.41667 0.62604
vt 0.50000 0.62603
vt 0.58333 0.62604
vt 0.66667 0.62604
vt 0.75000 0.75079
vt 0.83333 0.75078
vt 0.91667 0.75078
vt 1 0.75079
vt 0.08333 0.75078
vt 0.16667 0.75078
vt 0.25000 0.75079
vt 0.33333 0.75078
vt 0.41667 0.75078
vt 0.50000 0.75079
vt 0.58333 0.75078
vt 0.66667 0.75078
vt 0.75000 0.87542
vt 0.83333 0.87543
vt 0.91667 0.87543
vt 1 0.87542
vt 0.08333 0.87543
vt 0.16667 0.87543
vt 0.25000 0.87542
vt 0.33333 0.87543
vt 0.41667 0.87543
vt 0.50000 0.87542
vt 0.58333 0.87543
vt 0.66667 0.87543
vt 0.50000 1
vt 1.08333 0.12543
vt 1.08333 0.12543
vt 1.08333 0.25080
vt 1.08333 0.25080
vt 1.08333 0.37603
vt 1.08333 0.37603
vt 1.08333 0.50112
vt 1.08333 0.50112
vt 1.08333 0.62604
vt 1.08333 0.62604
vt 1.08333 0.75078
vt 1.08333 0.75078
vt 1.08333 0.87543
vt 1.08333 0.87543

# No. faces 96:

usemtl MatSheepHead

f 10/3/106 2/2/98 1/1/97
f 17/4/113 10/3/106 1/1/97
f 24/5/120 17/4/113 1/1/97
f 31/87/127 24/5/120 1/1/97
f 38/7/134 31/6/127 1/1/97
f 45/8/141 38/7/134 1/1/97
f 52/9/148 45/8/141 1/1/97
f 59/10/155 52/9/148 1/1/97
f 66/11/162 59/10/155 1/1/97
f 73/12/169 66/11/162 1/1/97
f 80/13/176 73/12/169 1/1/97
f 2/2/98 80/13/176 1/1/97
f 11/15/107 3/14/99 2/2/98 10/3/106
f 18/16/114 11/15/107 10/3/106 17/4/113
f 25/17/121 18/16/114 17/4/113 24/5/120
f 32/89/128 25/17/121 24/5/120 31/88/127
f 39/19/135 32/18/128 31/6/127 38/7/134
f 46/20/142 39/19/135 38/7/134 45/8/141
f 53/21/149 46/20/142 45/8/141 52/9/148
f 60/22/156 53/21/149 52/9/148 59/10/155
f 67/23/163 60/22/156 59/10/155 66/11/162
f 74/24/170 67/23/163 66/11/162 73/12/169
f 81/25/177 74/24/170 73/12/169 80/13/176
f 3/14/99 81/25/177 80/13/176 2/2/98
f 12/27/108 4/26/100 3/14/99 11/15/107
f 19/28/115 12/27/108 11/15/107 18/16/114
f 26/29/122 19/28/115 18/16/114 25/17/121
f 33/91/129 26/29/122 25/17/121 32/90/128
f 40/31/136 33/30/129 32/18/128 39/19/135
f 47/32/143 40/31/136 39/19/135 46/20/142
f 54/33/150 47/32/143 46/20/142 53/21/149
f 61/34/157 54/33/150 53/21/149 60/22/156
f 68/35/164 61/34/157 60/22/156 67/23/163
f 75/36/171 68/35/164 67/23/163 74/24/170
f 82/37/178 75/36/171 74/24/170 81/25/177
f 4/26/100 82/37/178 81/25/177 3/14/99
f 13/39/109 5/38/101 4/26/100 12/27/108
f 20/40/116 13/39/109 12/27/108 19/28/115
f 27/41/123 20/40/116 19/28/115 26/29/122
f 34/93/130 27/41/123 26/29/122 33/92/129
f 41/43/137 34/42/130 33/30/129 40/31/136
f 48/44/144 41/43/137 40/31/136 47/32/143
f 55/45/151 48/44/144 47/32/143 54/33/150
f 62/46/158 55/45/151 54/33/150 61/34/157
f 69/47/165 62/46/158 61/34/157 68/35/164
f 76/48/172 69/47/165 68/35/164 75/36/171
f 83/49/179 76/48/172 75/36/171 82/37/178
f 5/38/101 83/49/179 82/37/178 4/26/100
f 14/51/110 6/50/102 5/38/101 13/39/109
f 21/52/117 14/51/110 13/39/109 20/40/116
f 28/53/124 21/52/117 20/40/116 27/41/123
f 35/95/131 28/53/124 27/41/123 34/94/130
f 42/55/138 35/54/131 34/42/130 41/43/137
f 49/56/145 42/55/138 41/43/137 48/44/144
f 56/57/152 49/56/145 48/44/144 55/45/151
f 63/58/159 56/57/152 55/45/151 62/46/158
f 70/59/166 63/58/159 62/46/158 69/47/165
f 77/60/173 70/59/166 69/47/165 76/48/172
f 84/61/180 77/60/173 76/48/172 83/49/179
f 6/50/102 84/61/180 83/49/179 5/38/101
f 15/63/111 7/62/103 6/50/102 14/51/110
f 22/64/118 15/63/111 14/51/110 21/52/117
f 29/65/125 22/64/118 21/52/117 28/53/124
f 36/97/132 29/65/125 28/53/124 35/96/131
f 43/67/139 36/66/132 35/54/131 42/55/138
f 50/68/146 43/67/139 42/55/138 49/56/145
f 57/69/153 50/68/146 49/56/145 56/57/152
f 64/70/160 57/69/153 56/57/152 63/58/159
f 71/71/167 64/70/160 63/58/159 70/59/166
f 78/72/174 71/71/167 70/59/166 77/60/173
f 85/73/181 78/72/174 77/60/173 84/61/180
f 7/62/103 85/73/181 84/61/180 6/50/102
f 16/75/112 8/74/104 7/62/103 15/63/111
f 23/76/119 16/75/112 15/63/111 22/64/118
f 30/77/126 23/76/119 22/64/118 29/65/125
f 37/99/133 30/77/126 29/65/125 36/98/132
f 44/79/140 37/78/133 36/66/132 43/67/139
f 51/80/147 44/79/140 43/67/139 50/68/146
f 58/81/154 51/80/147 50/68/146 57/69/153
f 65/82/161 58/81/154 57/69/153 64/70/160
f 72/83/168 65/82/161 64/70/160 71/71/167
f 79/84/175 72/83/168 71/71/167 78/72/174
f 86/85/182 79/84/175 78/72/174 85/73/181
f 8/74/104 86/85/182 85/73/181 7/62/103
f 9/86/105 8/74/104 16/75/112
f 9/86/105 16/75/112 23/76/119
f 9/86/105 23/76/119 30/77/126
f 9/86/105 30/77/126 37/100/133
f 9/86/105 37/78/133 44/79/140
f 9/86/105 44/79/140 51/80/147
f 9/86/105 51/80/147 58/81/154
f 9/86/105 58/81/154 65/82/161
f 9/86/105 65/82/161 72/83/168
f 9/86/105 72/83/168 79/84/175
f 9/86/105 79/84/175 86/85/182
f 9/86/105 86/85/182 8/74/104

# End of Object "Low Grass"
