# Created with Anim8or 1.00
# Object "Low Grass":

mtllib limb.mtl

# Shape "Limb":
g SheepLimb
# No. points 80:
v 0.20416 -1.35463 0.00001
v 0.20834 -1.10269 0.00001
v 0.14732 -1.10269 -0.14733
v 0.14436 -1.35463 -0.14439
v 0.21250 -0.85349 0.00001
v 0.15026 -0.85349 -0.15021
v 0.21666 -0.60241 0.00001
v 0.15320 -0.60241 -0.15319
v 0.22084 -0.30259 0.00001
v 0.15616 -0.30259 -0.15617
v 0 -1.10269 -0.20833
v 0 -1.35463 -0.20419
v 0 -0.85349 -0.21245
v 0 -0.60241 -0.21665
v 0 -0.30259 -0.22085
v -0.14732 -1.10269 -0.14733
v -0.14436 -1.35463 -0.14439
v -0.15026 -0.85349 -0.15021
v -0.15320 -0.60241 -0.15319
v -0.15616 -0.30259 -0.15617
v -0.20834 -1.10269 0.00001
v -0.20416 -1.35463 0.00001
v -0.21250 -0.85349 0.00001
v -0.21666 -0.60241 0.00001
v -0.22084 -0.30259 0.00001
v -0.14732 -1.10269 0.14731
v -0.14436 -1.35463 0.14435
v -0.15026 -0.85349 0.15031
v -0.15320 -0.60241 0.15323
v -0.15616 -0.30259 0.15615
v 0 -1.10269 0.20833
v 0 -1.35463 0.20415
v 0 -0.85349 0.21255
v 0 -0.60241 0.21669
v 0 -0.30259 0.22083
v 0.14732 -1.10269 0.14731
v 0.14436 -1.35463 0.14435
v 0.15026 -0.85349 0.15031
v 0.15320 -0.60241 0.15323
v 0.15616 -0.30259 0.15615
v 0.30120 -0.10127 0.00001
v 0.30120 0.09967 0.00001
v 0.21298 0.09967 -0.21305
v 0.21298 -0.10127 -0.21311
v 0 0.09967 -0.30127
v 0 -0.10127 -0.30131
v -0.21298 0.09967 -0.21305
v -0.21298 -0.10127 -0.21311
v -0.30120 0.09967 0.00001
v -0.30120 -0.10127 0.00001
v -0.21298 0.09967 0.21289
v -0.21298 -0.10127 0.21285
v 0 0.09967 0.30111
v 0 -0.10127 0.30107
v 0.21298 0.09967 0.21289
v 0.21298 -0.10127 0.21285
v 0.16344 0.24163 -0.16353
v 0.23114 0.24163 0.00001
v 0 0.24163 -0.23123
v -0.16344 0.24163 -0.16353
v -0.23114 0.24163 0.00001
v -0.16344 0.24163 0.16333
v 0 0.24163 0.23103
v 0.16344 0.24163 0.16333
v 0.14262 -1.60249 -0.14265
v 0.00046 -1.60269 -0.00043
v 0.00066 -1.60269 0.00001
v 0.20170 -1.60249 0.00001
v 0 -1.60249 -0.20173
v 0 -1.60269 -0.00061
v -0.14262 -1.60249 -0.14265
v -0.00046 -1.60269 -0.00043
v -0.20170 -1.60249 0.00001
v -0.00066 -1.60269 0.00001
v -0.14262 -1.60249 0.14259
v -0.00046 -1.60269 0.00051
v 0 -1.60249 0.20167
v 0 -1.60269 0.00069
v 0.14262 -1.60249 0.14259
v 0.00046 -1.60269 0.00051

# No. normals 166:
vn 0.92379 -0.01532 -0.38258
vn 0.92373 -0.01532 -0.38273
vn 0.92377 -0.01531 -0.38265
vn 0.92383 -0.01288 -0.38259
vn 0.38252 -0.01518 -0.92382
vn 0.38264 -0.01527 -0.92377
vn 0.38265 -0.01544 -0.92376
vn 0.38263 -0.01296 -0.92381
vn -0.38252 -0.01518 -0.92382
vn -0.38264 -0.01527 -0.92377
vn -0.38265 -0.01544 -0.92376
vn -0.38263 -0.01296 -0.92381
vn -0.92379 -0.01532 -0.38258
vn -0.92373 -0.01532 -0.38273
vn -0.92377 -0.01531 -0.38265
vn -0.92383 -0.01288 -0.38259
vn -0.92376 -0.01533 0.38267
vn -0.92381 -0.01542 0.38255
vn -0.92378 -0.01527 0.38261
vn -0.92379 -0.01285 0.38268
vn -0.38263 -0.01533 0.92378
vn -0.38264 -0.01564 0.92377
vn -0.38265 -0.01523 0.92377
vn -0.38263 -0.01276 0.92381
vn 0.38263 -0.01533 0.92378
vn 0.38264 -0.01564 0.92377
vn 0.38265 -0.01523 0.92377
vn 0.38263 -0.01276 0.92381
vn 0.92376 -0.01533 0.38267
vn 0.92381 -0.01542 0.38255
vn 0.92378 -0.01527 0.38261
vn 0.92379 -0.01285 0.38268
vn 0.92393 0 -0.38256
vn 0.86684 -0.34601 -0.35899
vn 0.38269 0.00018 -0.92388
vn 0.35897 -0.34644 -0.86667
vn -0.38269 0.00018 -0.92388
vn -0.35897 -0.34644 -0.86667
vn -0.92393 0 -0.38256
vn -0.86684 -0.34601 -0.35899
vn -0.92381 0 0.38284
vn -0.86687 -0.34580 0.35910
vn -0.38269 -0.00018 0.92388
vn -0.35909 -0.34555 0.86698
vn 0.38269 -0.00018 0.92388
vn 0.35909 -0.34555 0.86698
vn 0.92381 0 0.38284
vn 0.86687 -0.34580 0.35910
vn 0.84069 0.41481 -0.34810
vn 0.34822 0.41476 -0.84066
vn -0.34822 0.41476 -0.84066
vn -0.84069 0.41481 -0.34810
vn -0.84054 0.41493 0.34833
vn -0.34818 0.41496 0.84058
vn 0.34818 0.41496 0.84058
vn 0.84054 0.41493 0.34833
vn 0.00097 -0.999999 -0.00044
vn 0.92387 -0.00917 -0.38260
vn 0.00039 -0.999999 -0.00099
vn 0.38269 -0.00917 -0.92383
vn -0.00039 -0.999999 -0.00099
vn -0.38269 -0.00917 -0.92383
vn -0.00097 -0.999999 -0.00044
vn -0.92387 -0.00917 -0.38260
vn -0.00099 -0.999999 0.00040
vn -0.92381 -0.00917 0.38274
vn -0.00039 -0.999999 0.00100
vn -0.38269 -0.00925 0.92383
vn 0.00039 -0.999999 0.00100
vn 0.38269 -0.00925 0.92383
vn 0.00099 -0.999999 0.00040
vn 0.92381 -0.00917 0.38274
vn 0.999912 -0.01325 0.00006
vn 0.999862 -0.01661 -0.00002
vn 0.70698 -0.01653 -0.70704
vn 0.92384 -0.01224 -0.38259
vn 0.38261 -0.01217 -0.92383
vn 0.999862 -0.01659 -0.00006
vn 0.70699 -0.01660 -0.70703
vn 0.999884 -0.01523 0.00001
vn 0.70703 -0.01531 -0.70702
vn 0.98051 -0.19645 0.00005
vn 0.69332 -0.19666 -0.69327
vn 0 -0.01648 -0.999864
vn 0 -0.01318 -0.999913
vn 0 -0.01662 -0.999862
vn 0 -0.01537 -0.999882
vn 0 -0.19680 -0.98044
vn -0.70698 -0.01653 -0.70704
vn -0.38261 -0.01217 -0.92383
vn -0.92384 -0.01224 -0.38259
vn -0.70699 -0.01660 -0.70703
vn -0.70703 -0.01531 -0.70702
vn -0.69332 -0.19666 -0.69327
vn -0.999862 -0.01661 -0.00002
vn -0.999912 -0.01325 0.00006
vn -0.999862 -0.01659 -0.00006
vn -0.999884 -0.01523 0.00001
vn -0.98051 -0.19645 0.00005
vn -0.70702 -0.01670 0.70700
vn -0.70703 -0.01328 0.70706
vn -0.70703 -0.01666 0.70698
vn -0.70703 -0.01518 0.70703
vn -0.69333 -0.19629 0.69337
vn 0 -0.01676 0.99986
vn 0 -0.01330 0.999912
vn 0 -0.01670 0.99986
vn 0 -0.01515 0.999885
vn 0 -0.19619 0.98057
vn 0.70702 -0.01670 0.70700
vn 0.70703 -0.01328 0.70706
vn 0.70703 -0.01666 0.70698
vn 0.70703 -0.01518 0.70703
vn 0.69333 -0.19629 0.69337
vn 0.98185 -0.18966 0.00011
vn 0.97345 0.22888 0.00014
vn 0.68838 0.22888 -0.68829
vn 0.69430 -0.18979 -0.69421
vn 0 0.22892 -0.97345
vn 0 -0.18986 -0.98181
vn -0.68838 0.22888 -0.68829
vn -0.69430 -0.18979 -0.69421
vn -0.97345 0.22888 0.00014
vn -0.98185 -0.18966 0.00011
vn -0.68828 0.22887 0.68839
vn -0.69424 -0.18957 0.69433
vn 0 0.22884 0.97346
vn 0 -0.18956 0.98187
vn 0.68828 0.22887 0.68839
vn 0.69424 -0.18957 0.69433
vn 0.63416 0.44249 -0.63408
vn 0.89674 0.44256 0.00012
vn 0 0.44246 -0.89679
vn -0.63416 0.44249 -0.63408
vn -0.89674 0.44256 0.00012
vn -0.63402 0.44263 0.63412
vn 0 0.44266 0.89669
vn 0.63402 0.44263 0.63412
vn 0.00068 -1 -0.00072
vn 0.38269 -0.00917 -0.92383
vn 0.92387 -0.00917 -0.38260
vn 0.00068 -1 -0.00072
vn 0.00098 -1 -0.00002
vn 0.00098 -1 -0.00002
vn 0.999951 -0.00992 0.00007
vn 0 -1 -0.00099
vn -0.38269 -0.00917 -0.92383
vn 0.38269 -0.00917 -0.92383
vn 0 -1 -0.00099
vn -0.00068 -1 -0.00072
vn -0.92387 -0.00917 -0.38260
vn -0.38269 -0.00917 -0.92383
vn -0.00068 -1 -0.00072
vn -0.00098 -1 -0.00002
vn -0.999951 -0.00992 0.00007
vn -0.00098 -1 -0.00002
vn -0.00069 -1 0.00070
vn -0.70705 -0.00997 0.70709
vn -0.00069 -1 0.00070
vn 0 -1 0.00100
vn 0.38269 -0.00925 0.92383
vn -0.38269 -0.00925 0.92383
vn 0 -1 0.00100
vn 0.00069 -1 0.00070
vn 0.70705 -0.00997 0.70709
vn 0.00069 -1 0.00070

# No. texture coordinates 98:
vt 0.74991 0.14597
vt 0.74992 0.27828
vt 0.87495 0.27828
vt 0.87496 0.14597
vt 0.74992 0.40916
vt 0.87492 0.40916
vt 0.74992 0.54103
vt 0.87494 0.54103
vt 0.74992 0.69849
vt 0.87495 0.69849
vt 0 0.27828
vt 0 0.14597
vt 0 0.40916
vt 0 0.54103
vt 0 0.69849
vt 0.12505 0.27828
vt 0.12504 0.14597
vt 0.12508 0.40916
vt 0.12506 0.54103
vt 0.12505 0.69849
vt 0.25008 0.27828
vt 0.25009 0.14597
vt 0.25008 0.40916
vt 0.25008 0.54103
vt 0.25008 0.69849
vt 0.37505 0.27828
vt 0.37505 0.14597
vt 0.37508 0.40916
vt 0.37507 0.54103
vt 0.37505 0.69849
vt 0.50000 0.27828
vt 0.50000 0.14597
vt 0.50000 0.40916
vt 0.50000 0.54103
vt 0.50000 0.69849
vt 0.62495 0.27828
vt 0.62495 0.14597
vt 0.62492 0.40916
vt 0.62493 0.54103
vt 0.62495 0.69849
vt 0.74994 0.80422
vt 0.74994 0.90976
vt 0.87499 0.90976
vt 0.87501 0.80422
vt 0 0.90976
vt 0 0.80422
vt 0.12501 0.90976
vt 0.12499 0.80422
vt 0.25006 0.90976
vt 0.25006 0.80422
vt 0.37500 0.90976
vt 0.37499 0.80422
vt 0.50000 0.90976
vt 0.50000 0.80422
vt 0.62500 0.90976
vt 0.62501 0.80422
vt 0.87500 0.98431
vt 0.74992 0.98431
vt 0 0.98431
vt 0.12500 0.98431
vt 0.25008 0.98431
vt 0.37500 0.98431
vt 0.50000 0.98431
vt 0.62500 0.98431
vt 0.87496 0.01579
vt 0.84904 0.01569
vt 0.72372 0.01569
vt 0.74991 0.01579
vt 0 0.01579
vt 0 0.01569
vt 0.12504 0.01579
vt 0.15096 0.01569
vt 0.25009 0.01579
vt 0.27628 0.01569
vt 0.37504 0.01579
vt 0.39717 0.01569
vt 0.50000 0.01579
vt 0.50000 0.01569
vt 0.62496 0.01579
vt 0.60283 0.01569
vt 1 0.27828
vt 1 0.14597
vt 1 0.40916
vt 1 0.27828
vt 1 0.54103
vt 1 0.40916
vt 1 0.69849
vt 1 0.54103
vt 1 0.90976
vt 1 0.80422
vt 1 0.80422
vt 1 0.69849
vt 1 0.98431
vt 1 0.90976
vt 1 0.01579
vt 1 0.01569
vt 1 0.14597
vt 1 0.01579

# No. faces 72:

usemtl MatSheepLimb

f 4/4/76 3/3/75 2/2/74 1/1/73
f 3/3/75 6/6/79 5/5/78 2/2/74
f 6/6/79 8/8/81 7/7/80 5/5/78
f 8/8/81 10/10/83 9/9/82 7/7/80
f 12/82/85 11/81/84 3/3/75 4/4/77
f 11/84/84 13/83/86 6/6/79 3/3/75
f 13/86/86 14/85/87 8/8/81 6/6/79
f 14/88/87 15/87/88 10/10/83 8/8/81
f 17/17/90 16/16/89 11/11/84 12/12/85
f 16/16/89 18/18/92 13/13/86 11/11/84
f 18/18/92 19/19/93 14/14/87 13/13/86
f 19/19/93 20/20/94 15/15/88 14/14/87
f 22/22/96 21/21/95 16/16/89 17/17/91
f 21/21/95 23/23/97 18/18/92 16/16/89
f 23/23/97 24/24/98 19/19/93 18/18/92
f 24/24/98 25/25/99 20/20/94 19/19/93
f 27/27/101 26/26/100 21/21/95 22/22/96
f 26/26/100 28/28/102 23/23/97 21/21/95
f 28/28/102 29/29/103 24/24/98 23/23/97
f 29/29/103 30/30/104 25/25/99 24/24/98
f 32/32/106 31/31/105 26/26/100 27/27/101
f 31/31/105 33/33/107 28/28/102 26/26/100
f 33/33/107 34/34/108 29/29/103 28/28/102
f 34/34/108 35/35/109 30/30/104 29/29/103
f 37/37/111 36/36/110 31/31/105 32/32/106
f 36/36/110 38/38/112 33/33/107 31/31/105
f 38/38/112 39/39/113 34/34/108 33/33/107
f 39/39/113 40/40/114 35/35/109 34/34/108
f 1/1/73 2/2/74 36/36/110 37/37/111
f 2/2/74 5/5/78 38/38/112 36/36/110
f 5/5/78 7/7/80 39/39/113 38/38/112
f 7/7/80 9/9/82 40/40/114 39/39/113
f 44/44/118 43/43/117 42/42/116 41/41/115
f 41/41/115 9/9/82 10/10/83 44/44/118
f 46/90/120 45/89/119 43/43/117 44/44/118
f 44/44/118 10/10/83 15/92/88 46/91/120
f 48/48/122 47/47/121 45/45/119 46/46/120
f 46/46/120 15/15/88 20/20/94 48/48/122
f 50/50/124 49/49/123 47/47/121 48/48/122
f 48/48/122 20/20/94 25/25/99 50/50/124
f 52/52/126 51/51/125 49/49/123 50/50/124
f 50/50/124 25/25/99 30/30/104 52/52/126
f 54/54/128 53/53/127 51/51/125 52/52/126
f 52/52/126 30/30/104 35/35/109 54/54/128
f 56/56/130 55/55/129 53/53/127 54/54/128
f 54/54/128 35/35/109 40/40/114 56/56/130
f 41/41/115 42/42/116 55/55/129 56/56/130
f 56/56/130 40/40/114 9/9/82 41/41/115
f 58/58/132 42/42/116 43/43/117 57/57/131
f 57/57/131 43/43/117 45/94/119 59/93/133
f 59/59/133 45/45/119 47/47/121 60/60/134
f 60/60/134 47/47/121 49/49/123 61/61/135
f 61/61/135 49/49/123 51/51/125 62/62/136
f 62/62/136 51/51/125 53/53/127 63/63/137
f 63/63/137 53/53/127 55/55/129 64/64/138
f 64/64/138 55/55/129 42/42/116 58/58/132
f 68/68/144 67/67/143 66/66/142 65/65/139
f 65/65/141 4/4/76 1/1/73 68/68/145
f 65/65/139 66/66/142 70/96/149 69/95/146
f 69/98/148 12/97/85 4/4/77 65/65/140
f 69/69/146 70/70/149 72/72/153 71/71/150
f 71/71/152 17/17/90 12/12/85 69/69/147
f 71/71/150 72/72/153 74/74/156 73/73/154
f 73/73/155 22/22/96 17/17/91 71/71/151
f 73/73/154 74/74/156 76/76/159 75/75/157
f 75/75/158 27/27/101 22/22/96 73/73/155
f 75/75/157 76/76/159 78/78/163 77/77/160
f 77/77/162 32/32/106 27/27/101 75/75/158
f 77/77/160 78/78/163 80/80/166 79/79/164
f 79/79/165 37/37/111 32/32/106 77/77/161
f 79/79/164 80/80/166 67/67/143 68/68/144
f 68/68/145 1/1/73 37/37/111 79/79/165

# End of Object "Low Grass"
