# Created with Anim8or 1.00
# Object "Low Grass":

mtllib torso.mtl

# Shape "Torso":
g SheepTorso
# No. points 50:
v 0 0 -1.66904
v 0 0.63592 -1.49034
v -0.30390 0.55074 -1.49034
v -0.52634 0.31798 -1.49034
v -0.60776 0 -1.49034
v -0.52634 -0.31798 -1.49034
v -0.30390 -0.55074 -1.49034
v 0 -0.63592 -1.49034
v 0.30390 -0.55074 -1.49034
v 0.52634 -0.31798 -1.49034
v 0.60776 0 -1.49034
v 0.52634 0.31798 -1.49034
v 0.30390 0.55074 -1.49034
v 0 0.92296 -0.57158
v -0.46146 0.79930 -0.57158
v -0.79930 0.46146 -0.57158
v -0.92296 0 -0.57158
v -0.79930 -0.46146 -0.57158
v -0.46146 -0.79930 -0.57158
v 0 -0.92296 -0.57158
v 0.46146 -0.79930 -0.57158
v 0.79930 -0.46146 -0.57158
v 0.92296 0 -0.57158
v 0.79930 0.46146 -0.57158
v 0.46146 0.79930 -0.57158
v 0 0.92296 0.57158
v -0.46146 0.79930 0.57158
v -0.79930 0.46146 0.57158
v -0.92296 0 0.57158
v -0.79930 -0.46146 0.57158
v -0.46146 -0.79930 0.57158
v 0 -0.92296 0.57158
v 0.46146 -0.79930 0.57158
v 0.79930 -0.46146 0.57158
v 0.92296 0 0.57158
v 0.79930 0.46146 0.57158
v 0.46146 0.79930 0.57158
v 0 0.62450 1.49026
v -0.31226 0.54084 1.49026
v -0.54084 0.31226 1.49026
v -0.62450 0 1.49026
v -0.54084 -0.31226 1.49026
v -0.31226 -0.54084 1.49026
v 0 -0.62450 1.49026
v 0.31226 -0.54084 1.49026
v 0.54084 -0.31226 1.49026
v 0.62450 0 1.49026
v 0.54084 0.31226 1.49026
v 0.31226 0.54084 1.49026
v 0 0 1.67066

# No. normals 134:
vn -0.07561 0.26976 -0.95996
vn -0.20629 0.19715 -0.95842
vn -0.28136 0.07204 -0.95690
vn -0.28136 -0.07204 -0.95690
vn -0.20629 -0.19715 -0.95842
vn -0.07561 -0.26976 -0.95996
vn 0.07561 -0.26976 -0.95996
vn 0.20629 -0.19715 -0.95842
vn 0.28136 -0.07204 -0.95690
vn 0.28136 0.07204 -0.95690
vn 0.20629 0.19715 -0.95842
vn 0.07561 0.26976 -0.95996
vn -0.24781 0.92473 -0.28891
vn -0.67491 0.67491 -0.29833
vn -0.91797 0.24599 -0.31114
vn -0.91931 -0.23539 -0.31539
vn -0.68802 -0.65751 -0.30709
vn -0.25802 -0.92055 -0.29329
vn 0.24781 -0.92473 -0.28891
vn 0.67491 -0.67491 -0.29833
vn 0.91797 -0.24599 -0.31114
vn 0.91931 0.23539 -0.31539
vn 0.68802 0.65751 -0.30709
vn 0.25802 0.92055 -0.29329
vn -0.25884 0.96592 0
vn -0.70711 0.70711 0
vn -0.96592 0.25884 0
vn -0.96592 -0.25884 0
vn -0.70711 -0.70711 0
vn -0.25884 -0.96592 0
vn 0.25884 -0.96592 0
vn 0.70711 -0.70711 0
vn 0.96592 -0.25884 0
vn 0.96592 0.25884 0
vn 0.70711 0.70711 0
vn 0.25884 0.96592 0
vn -0.24692 0.92162 0.29941
vn -0.67467 0.67467 0.29938
vn -0.92161 0.24697 0.29939
vn -0.92162 -0.24692 0.29941
vn -0.67467 -0.67467 0.29938
vn -0.24697 -0.92161 0.29939
vn 0.24692 -0.92162 0.29941
vn 0.67467 -0.67467 0.29938
vn 0.92161 -0.24697 0.29939
vn 0.92162 0.24692 0.29941
vn 0.67467 0.67467 0.29938
vn 0.24697 0.92161 0.29939
vn -0.07415 0.27676 0.95807
vn -0.20260 0.20260 0.95808
vn -0.27676 0.07415 0.95807
vn -0.27676 -0.07415 0.95807
vn -0.20260 -0.20260 0.95808
vn -0.07415 -0.27676 0.95807
vn 0.07415 -0.27676 0.95807
vn 0.20260 -0.20260 0.95808
vn 0.27676 -0.07415 0.95807
vn 0.27676 0.07415 0.95807
vn 0.20260 0.20260 0.95808
vn 0.07415 0.27676 0.95807
vn 0 0 -1
vn 0 0.27053 -0.96271
vn 0.00528 0.95365 -0.30088
vn -0.14135 0.23411 -0.96188
vn -0.47616 0.82549 -0.30304
vn -0.24448 0.13495 -0.96022
vn -0.82182 0.47512 -0.31445
vn -0.28209 0 -0.95939
vn -0.94647 0.00546 -0.32275
vn -0.24448 -0.13495 -0.96022
vn -0.82801 -0.45998 -0.32067
vn -0.14135 -0.23411 -0.96188
vn -0.48881 -0.81537 -0.31021
vn 0 -0.27053 -0.96271
vn -0.00528 -0.95365 -0.30088
vn 0.14135 -0.23411 -0.96188
vn 0.47616 -0.82549 -0.30304
vn 0.24448 -0.13495 -0.96022
vn 0.82182 -0.47512 -0.31445
vn 0.28209 0 -0.95939
vn 0.94647 -0.00546 -0.32275
vn 0.24448 0.13495 -0.96022
vn 0.82801 0.45998 -0.32067
vn 0.14135 0.23411 -0.96188
vn 0.48881 0.81537 -0.31021
vn 0.00267 0.98832 -0.15234
vn -0.49391 0.85584 -0.15357
vn -0.85479 0.49385 -0.15952
vn -0.98646 0.00278 -0.16398
vn -0.85840 -0.48643 -0.16289
vn -0.50064 -0.85126 -0.15720
vn -0.00267 -0.98832 -0.15234
vn 0.49391 -0.85584 -0.15357
vn 0.85479 -0.49385 -0.15952
vn 0.98646 -0.00278 -0.16398
vn 0.85840 0.48643 -0.16289
vn 0.50064 0.85126 -0.15720
vn 0.00001 0.98765 0.15666
vn -0.49383 0.85533 0.15666
vn -0.85533 0.49384 0.15665
vn -0.98765 0.00001 0.15666
vn -0.85533 -0.49383 0.15666
vn -0.49384 -0.85533 0.15665
vn -0.00001 -0.98765 0.15666
vn 0.49383 -0.85533 0.15666
vn 0.85533 -0.49384 0.15665
vn 0.98765 -0.00001 0.15666
vn 0.85533 0.49383 0.15666
vn 0.49384 0.85533 0.15665
vn 0.00003 0.95107 0.30897
vn 0 0.27752 0.96072
vn -0.47553 0.82366 0.30897
vn -0.13876 0.24034 0.96072
vn -0.82365 0.47555 0.30896
vn -0.24034 0.13876 0.96072
vn -0.95107 0.00003 0.30897
vn -0.27752 0 0.96072
vn -0.82366 -0.47553 0.30897
vn -0.24034 -0.13876 0.96072
vn -0.47555 -0.82365 0.30896
vn -0.13876 -0.24034 0.96072
vn -0.00003 -0.95107 0.30897
vn 0 -0.27752 0.96072
vn 0.47553 -0.82366 0.30897
vn 0.13876 -0.24034 0.96072
vn 0.82365 -0.47555 0.30896
vn 0.24034 -0.13876 0.96072
vn 0.95107 -0.00003 0.30897
vn 0.27752 0 0.96072
vn 0.82366 0.47553 0.30897
vn 0.24034 0.13876 0.96072
vn 0.47555 0.82365 0.30896
vn 0.13876 0.24034 0.96072
vn 0 0 1

# No. texture coordinates 66:
vt 0.74840 0.98704
vt 0.50000 0.93496
vt 0.41975 0.93496
vt 0.33649 0.93496
vt 0.25000 0.93496
vt 0.16351 0.93496
vt 0.08025 0.93496
vt 0.999997 0.93496
vt 0.91975 0.93496
vt 0.83649 0.93496
vt 0.75000 0.93496
vt 0.66351 0.93496
vt 0.58025 0.93496
vt 0.50000 0.66721
vt 0.41667 0.66721
vt 0.33333 0.66721
vt 0.25000 0.66721
vt 0.16667 0.66721
vt 0.08333 0.66721
vt 0.999998 0.66721
vt 0.91667 0.66721
vt 0.83333 0.66721
vt 0.75000 0.66721
vt 0.66667 0.66721
vt 0.58333 0.66721
vt 0.50000 0.33406
vt 0.41667 0.33406
vt 0.33333 0.33406
vt 0.25000 0.33406
vt 0.16667 0.33406
vt 0.08333 0.33406
vt 0.999998 0.33406
vt 0.91667 0.33406
vt 0.83333 0.33406
vt 0.75000 0.33406
vt 0.66667 0.33406
vt 0.58333 0.33406
vt 0.50000 0.06634
vt 0.41667 0.06634
vt 0.33334 0.06634
vt 0.25000 0.06634
vt 0.16666 0.06634
vt 0.08333 0.06634
vt 0.999997 0.06634
vt 0.91666 0.06634
vt 0.83333 0.06634
vt 0.75000 0.06634
vt 0.66667 0.06634
vt 0.58334 0.06634
vt 0.75059 0.01376
vt 1.16351 0.93496
vt 1.16351 0.93496
vt 1.08025 0.93496
vt 1.08025 0.93496
vt 1.08025 0.93496
vt 1.08333 0.66721
vt 1.08333 0.66721
vt 1.08333 0.33406
vt 1.08333 0.33406
vt 1.08333 0.06634
vt 1.25 0.06634
vt 1.16666 0.06634
vt 1.25 0.06634
vt 1.08333 0.06634
vt 1.16666 0.06634
vt 1.08333 0.06634

# No. faces 60:

usemtl MatSheepTorso

f 3/3/64 2/2/62 1/1/61
f 4/4/66 3/3/64 1/1/61
f 5/5/68 4/4/66 1/1/61
f 6/51/70 5/5/68 1/1/61
f 7/53/72 6/52/70 1/1/61
f 8/8/74 7/54/72 1/1/61
f 9/9/76 8/8/74 1/1/61
f 10/10/78 9/9/76 1/1/61
f 11/11/80 10/10/78 1/1/61
f 12/12/82 11/11/80 1/1/61
f 13/13/84 12/12/82 1/1/61
f 2/2/62 13/13/84 1/1/61
f 15/15/87 14/14/86 2/2/63 3/3/65
f 16/16/88 15/15/87 3/3/65 4/4/67
f 17/17/89 16/16/88 4/4/67 5/5/69
f 18/18/90 17/17/89 5/5/69 6/6/71
f 19/19/91 18/18/90 6/6/71 7/7/73
f 20/20/92 19/56/91 7/55/73 8/8/75
f 21/21/93 20/20/92 8/8/75 9/9/77
f 22/22/94 21/21/93 9/9/77 10/10/79
f 23/23/95 22/22/94 10/10/79 11/11/81
f 24/24/96 23/23/95 11/11/81 12/12/83
f 25/25/97 24/24/96 12/12/83 13/13/85
f 14/14/86 25/25/97 13/13/85 2/2/63
f 27/27/99 26/26/98 14/14/86 15/15/87
f 28/28/100 27/27/99 15/15/87 16/16/88
f 29/29/101 28/28/100 16/16/88 17/17/89
f 30/30/102 29/29/101 17/17/89 18/18/90
f 31/31/103 30/30/102 18/18/90 19/19/91
f 32/32/104 31/58/103 19/57/91 20/20/92
f 33/33/105 32/32/104 20/20/92 21/21/93
f 34/34/106 33/33/105 21/21/93 22/22/94
f 35/35/107 34/34/106 22/22/94 23/23/95
f 36/36/108 35/35/107 23/23/95 24/24/96
f 37/37/109 36/36/108 24/24/96 25/25/97
f 26/26/98 37/37/109 25/25/97 14/14/86
f 39/39/112 38/38/110 26/26/98 27/27/99
f 40/40/114 39/39/112 27/27/99 28/28/100
f 41/41/116 40/40/114 28/28/100 29/29/101
f 42/42/118 41/41/116 29/29/101 30/30/102
f 43/43/120 42/42/118 30/30/102 31/31/103
f 44/44/122 43/60/120 31/59/103 32/32/104
f 45/45/124 44/44/122 32/32/104 33/33/105
f 46/46/126 45/45/124 33/33/105 34/34/106
f 47/47/128 46/46/126 34/34/106 35/35/107
f 48/48/130 47/47/128 35/35/107 36/36/108
f 49/49/132 48/48/130 36/36/108 37/37/109
f 38/38/110 49/49/132 37/37/109 26/26/98
f 50/50/134 38/38/111 39/39/113
f 50/50/134 39/39/113 40/40/115
f 50/50/134 40/40/115 41/61/117
f 50/50/134 41/63/117 42/62/119
f 50/50/134 42/65/119 43/64/121
f 50/50/134 43/66/121 44/44/123
f 50/50/134 44/44/123 45/45/125
f 50/50/134 45/45/125 46/46/127
f 50/50/134 46/46/127 47/47/129
f 50/50/134 47/47/129 48/48/131
f 50/50/134 48/48/131 49/49/133
f 50/50/134 49/49/133 38/38/111

# End of Object "Low Grass"
